# xmcd
#
# Track frame offsets: 
#        150
#        23075
#        46612
#        68671
#        88220
#        104497
#        130075
#        150691
#        168259
#        191845
#        211805
#        226921
#        240755
#
# Disc length: 3478 seconds
#
# Revision: 0
# Processed by: cddbd v1.5.2PL0 Copyright (c) Steve Scherf et al.
# Submitted via: ExactAudioCopy v0.99pb4
#
DISCID=9b0d940d
DTITLE=Зьмiцер Вайцюшкевiч - Паравоз каханьня
DYEAR=2004
DGENRE=Vocal
TTITLE0=Арыстакратка
TTITLE1=Актрыса
TTITLE2=Гаспадыня
TTITLE3=Панi трошкi у гадах
TTITLE4=Сон
TTITLE5=Вясновы дзень
TTITLE6=Чакаю
TTITLE7=Зоркi
TTITLE8=Я усё сваё жыцьцё
TTITLE9=SOS
TTITLE10=Пытаньне...
TTITLE11=Сiнеюць ценi
TTITLE12=Новы год
EXTD=
EXTT0=
EXTT1=
EXTT2=
EXTT3=
EXTT4=
EXTT5=
EXTT6=
EXTT7=
EXTT8=
EXTT9=
EXTT10=
EXTT11=
EXTT12=
PLAYORDER=
